<svg width="3053" height="3067" viewBox="0 0 3053 3067" fill="none" xmlns="http://www.w3.org/2000/svg">
<path d="M2866.59 2252.81C2792.14 2037.66 2651.72 1790.14 2458.94 1533.62C2651.72 1277.1 2792.06 1029.58 2866.59 814.435C2981.83 481.457 2907.38 312.541 2824.69 229.476C2757.53 162.005 2664.07 127.792 2546.85 127.792C2289.84 127.792 1920.69 298.06 1526.5 596.906C1132.39 298.06 763.156 127.792 506.147 127.792C388.929 127.792 295.471 162.005 228.308 229.476C145.622 312.541 71.1719 481.457 186.41 814.435C260.86 1029.58 401.284 1277.1 594.061 1533.62C401.284 1790.14 260.939 2037.58 186.41 2252.81C71.1719 2585.79 145.622 2754.7 228.308 2837.77C295.471 2905.24 389.008 2939.45 506.147 2939.45C763.156 2939.45 1132.31 2769.18 1526.5 2470.34C1920.69 2769.18 2289.84 2939.45 2546.85 2939.45C2664.07 2939.45 2757.53 2905.24 2824.69 2837.77C2907.38 2754.7 2981.83 2585.79 2866.59 2252.81ZM2757.53 2770.22C2707.79 2820.18 2635.8 2843.97 2546.85 2843.97C2300.06 2843.97 1922.67 2661.13 1526.5 2349.96C1130.33 2661.21 752.939 2843.97 506.147 2843.97C417.204 2843.97 345.289 2820.26 295.471 2770.22C107.526 2581.41 292.382 2074.9 713.893 1533.54C292.461 992.183 107.605 485.674 295.471 296.867C345.289 246.821 417.204 223.11 506.147 223.11C752.939 223.11 1130.33 405.95 1526.5 717.128C1922.67 405.871 2300.06 223.11 2546.85 223.11C2635.72 223.11 2707.71 246.821 2757.53 296.867C2945.48 485.674 2760.62 992.183 2339.11 1533.54C2760.54 2074.9 2945.4 2581.41 2757.53 2770.22Z" fill="#F5F5F5"/>
<path d="M1526.5 1424.7L909.52 913.733L1418.15 1533.62L909.52 2153.43L1526.5 1642.47L2143.56 2153.43L1634.93 1533.62L2143.56 913.733L1526.5 1424.7Z" fill="#F5F5F5"/>
</svg>
